<svg xmlns="http://www.w3.org/2000/svg" xmlns:xlink="http://www.w3.org/1999/xlink" width="500" zoomAndPan="magnify" viewBox="0 0 375 374.999991" height="500" preserveAspectRatio="xMidYMid meet" version="1.0"><defs><clipPath id="id1"><path d="M 87.3125 87.3125 L 287.5625 87.3125 L 287.5625 287.5625 L 87.3125 287.5625 Z M 87.3125 87.3125 " clip-rule="nonzero"/></clipPath><clipPath id="id2"><path d="M 112.5 112.5 L 262.5 112.5 L 262.5 262.5 L 112.5 262.5 Z M 112.5 112.5 " clip-rule="nonzero"/></clipPath></defs><g clip-path="url(#id1)"><path fill="#000000" d="M 187.4375 87.3125 C 132.140625 87.3125 87.3125 132.140625 87.3125 187.4375 C 87.3125 242.734375 132.140625 287.5625 187.4375 287.5625 C 242.734375 287.5625 287.5625 242.734375 287.5625 187.4375 C 287.5625 132.140625 242.734375 87.3125 187.4375 87.3125 " fill-opacity="1" fill-rule="nonzero"/></g><path fill="#00c2cb" d="M 194.703125 165.007812 L 194.703125 177.199219 L 210.058594 177.199219 L 207.910156 193.882812 L 194.703125 193.882812 L 194.703125 232.109375 L 177.960938 232.109375 L 177.960938 193.882812 L 163.617188 193.882812 L 163.617188 177.199219 L 177.960938 177.199219 L 177.960938 165.007812 C 177.960938 151.800781 188.636719 142.890625 201.84375 142.890625 C 207.65625 142.890625 211.320312 143.777344 211.320312 143.777344 L 211.320312 157.867188 L 201.84375 157.867188 C 197.925781 157.867188 194.703125 161.089844 194.703125 165.007812 Z M 194.703125 165.007812 " fill-opacity="1" fill-rule="nonzero"/><g clip-path="url(#id2)"><path fill="#00c2cb" d="M 187.5 262.5 C 146.175781 262.5 112.5 228.886719 112.5 187.5 C 112.5 146.113281 146.175781 112.5 187.5 112.5 C 228.886719 112.5 262.5 146.175781 262.5 187.5 C 262.5 228.824219 228.886719 262.5 187.5 262.5 Z M 187.5 116.605469 C 148.390625 116.605469 116.605469 148.390625 116.605469 187.5 C 116.605469 226.609375 148.390625 258.394531 187.5 258.394531 C 226.609375 258.394531 258.394531 226.609375 258.394531 187.5 C 258.394531 148.390625 226.609375 116.605469 187.5 116.605469 Z M 187.5 116.605469 " fill-opacity="1" fill-rule="nonzero"/></g></svg>