<svg xmlns="http://www.w3.org/2000/svg" xmlns:xlink="http://www.w3.org/1999/xlink" width="500" zoomAndPan="magnify" viewBox="0 0 375 374.999991" height="500" preserveAspectRatio="xMidYMid meet" version="1.0"><defs><clipPath id="id1"><path d="M 87.3125 87.3125 L 287.5625 87.3125 L 287.5625 287.5625 L 87.3125 287.5625 Z M 87.3125 87.3125 " clip-rule="nonzero"/></clipPath><clipPath id="id2"><path d="M 112.5 112.5 L 262.5 112.5 L 262.5 262.5 L 112.5 262.5 Z M 112.5 112.5 " clip-rule="nonzero"/></clipPath></defs><g clip-path="url(#id1)"><path fill="#000000" d="M 187.4375 87.3125 C 132.140625 87.3125 87.3125 132.140625 87.3125 187.4375 C 87.3125 242.734375 132.140625 287.5625 187.4375 287.5625 C 242.734375 287.5625 287.5625 242.734375 287.5625 187.4375 C 287.5625 132.140625 242.734375 87.3125 187.4375 87.3125 " fill-opacity="1" fill-rule="nonzero"/></g><path fill="#00c2cb" d="M 207.085938 144.40625 L 167.976562 144.40625 C 155.023438 144.40625 144.472656 154.960938 144.472656 167.914062 L 144.472656 207.023438 C 144.472656 219.976562 155.023438 230.527344 167.976562 230.527344 L 207.085938 230.527344 C 220.039062 230.527344 230.59375 219.976562 230.59375 207.023438 L 230.59375 167.976562 C 230.59375 154.960938 220.039062 144.40625 207.085938 144.40625 Z M 223.199219 207.085938 C 223.199219 215.996094 215.996094 223.199219 207.085938 223.199219 L 167.976562 223.199219 C 159.066406 223.199219 151.800781 215.996094 151.800781 207.085938 L 151.800781 167.976562 C 151.800781 159.066406 159.066406 151.800781 167.976562 151.800781 L 207.085938 151.800781 C 215.996094 151.800781 223.199219 159.003906 223.199219 167.976562 Z M 223.199219 207.085938 " fill-opacity="1" fill-rule="nonzero"/><path fill="#00c2cb" d="M 216.3125 163.933594 C 216.3125 166.839844 213.972656 169.238281 211.003906 169.238281 C 208.097656 169.238281 205.695312 166.902344 205.695312 163.933594 C 205.695312 161.027344 208.035156 158.625 211.003906 158.625 C 213.972656 158.6875 216.3125 161.027344 216.3125 163.933594 Z M 216.3125 163.933594 " fill-opacity="1" fill-rule="nonzero"/><path fill="#00c2cb" d="M 187.5 165.574219 C 175.433594 165.574219 165.574219 175.433594 165.574219 187.5 C 165.574219 199.566406 175.433594 209.425781 187.5 209.425781 C 199.566406 209.425781 209.425781 199.566406 209.425781 187.5 C 209.425781 175.433594 199.632812 165.574219 187.5 165.574219 Z M 187.5 202.03125 C 179.476562 202.03125 172.96875 195.523438 172.96875 187.5 C 172.96875 179.476562 179.476562 172.96875 187.5 172.96875 C 195.523438 172.96875 202.03125 179.476562 202.03125 187.5 C 202.03125 195.523438 195.523438 202.03125 187.5 202.03125 Z M 187.5 202.03125 " fill-opacity="1" fill-rule="nonzero"/><g clip-path="url(#id2)"><path fill="#00c2cb" d="M 187.5 262.5 C 146.175781 262.5 112.5 228.886719 112.5 187.5 C 112.5 146.175781 146.175781 112.5 187.5 112.5 C 228.886719 112.5 262.5 146.175781 262.5 187.5 C 262.5 228.886719 228.886719 262.5 187.5 262.5 Z M 187.5 116.605469 C 148.390625 116.605469 116.605469 148.390625 116.605469 187.5 C 116.605469 226.609375 148.390625 258.394531 187.5 258.394531 C 226.609375 258.394531 258.394531 226.609375 258.394531 187.5 C 258.394531 148.390625 226.609375 116.605469 187.5 116.605469 Z M 187.5 116.605469 " fill-opacity="1" fill-rule="nonzero"/></g></svg>